<?xml version="1.0" standalone="no"?>
<!DOCTYPE svg PUBLIC "-//W3C//DTD SVG 20010904//EN"
 "http://www.w3.org/TR/2001/REC-SVG-20010904/DTD/svg10.dtd">
<svg version="1.0" xmlns="http://www.w3.org/2000/svg"
 width="600.000000pt" height="300.000000pt" viewBox="0 0 600.000000 300.000000"
 preserveAspectRatio="xMidYMid meet">

<g transform="translate(0.000000,300.000000) scale(0.100000,-0.100000)"
fill="#000000" stroke="none">
<path d="M862 1858 c3 -7 29 -154 59 -325 l54 -313 75 0 75 0 105 197 c58 108
136 254 173 325 l68 128 -64 0 -65 0 -121 -227 c-66 -126 -126 -236 -134 -247
-12 -17 -18 10 -53 225 l-39 244 -69 3 c-53 2 -67 0 -64 -10z"/>
<path d="M1491 1820 c-6 -28 -11 -53 -11 -56 0 -3 28 -4 62 -2 l62 3 11 53 12
52 -63 0 -62 0 -11 -50z"/>
<path d="M3591 1567 c-35 -166 -66 -313 -69 -326 l-5 -23 179 4 c211 5 253 17
329 99 69 74 97 143 103 253 5 116 -18 188 -80 240 -52 45 -105 56 -266 56
l-127 0 -64 -303z m358 168 c41 -35 55 -84 48 -164 -8 -82 -47 -162 -100 -205
-36 -29 -45 -31 -131 -34 l-93 -4 46 216 45 216 77 0 c68 0 81 -3 108 -25z"/>
<path d="M4314 1813 l-47 -58 42 -3 c37 -3 47 2 111 54 39 32 70 59 70 61 0 2
-29 3 -64 3 l-65 0 -47 -57z"/>
<path d="M2325 1691 c-73 -18 -126 -63 -166 -141 -29 -57 -32 -177 -7 -226 42
-78 131 -122 222 -109 64 8 94 24 139 74 35 39 46 61 30 61 -5 1 -28 5 -53 10
-41 7 -47 6 -78 -21 -35 -31 -77 -38 -114 -18 -18 10 -48 65 -48 89 0 6 56 10
159 10 178 0 171 -3 171 80 0 143 -111 226 -255 191z m109 -112 c17 -14 26
-30 26 -50 l0 -29 -95 0 c-110 0 -118 9 -61 66 41 41 89 46 130 13z"/>
<path d="M2895 1685 c-16 -9 -43 -30 -58 -48 l-28 -32 6 30 c4 17 8 36 11 43
3 10 -11 12 -58 10 l-61 -3 -48 -220 c-27 -121 -48 -226 -49 -232 0 -9 19 -13
63 -13 l63 0 23 115 c13 63 34 137 46 163 26 56 75 92 124 92 29 0 34 5 53 46
16 38 18 48 7 55 -21 13 -61 11 -94 -6z"/>
<path d="M3160 1685 c-104 -32 -170 -129 -172 -254 -3 -128 60 -202 183 -217
113 -13 215 41 263 139 74 151 21 307 -113 336 -66 14 -105 13 -161 -4z m154
-110 c22 -21 26 -32 26 -81 0 -102 -59 -184 -133 -184 -39 0 -64 15 -82 50
-19 37 -19 75 1 133 33 96 128 138 188 82z"/>
<path d="M4613 1691 c-54 -14 -97 -45 -120 -88 l-23 -40 60 -6 c55 -5 63 -3
85 19 57 56 160 3 113 -59 -9 -11 -40 -19 -104 -26 -151 -16 -193 -45 -201
-139 -12 -120 121 -182 230 -108 l35 24 6 -24 c6 -22 11 -24 66 -24 l60 0 -6
43 c-4 27 3 84 20 160 14 65 26 132 26 148 0 42 -25 86 -60 104 -36 19 -142
28 -187 16z m92 -288 c-3 -16 -13 -38 -21 -51 -27 -41 -99 -56 -128 -26 -38
37 -6 77 75 93 78 15 82 14 74 -16z"/>
<path d="M1416 1463 c-25 -126 -46 -231 -46 -235 0 -5 27 -8 60 -8 54 0 60 2
65 23 3 12 23 110 45 217 23 107 43 203 46 213 5 15 -2 17 -59 17 l-63 0 -48
-227z"/>
<path d="M1650 1682 c0 -5 20 -109 45 -232 25 -123 45 -225 45 -227 0 -2 25
-3 56 -1 l56 3 139 227 c76 126 139 230 139 233 0 3 -30 5 -66 3 l-67 -3 -85
-148 c-46 -81 -87 -146 -89 -143 -4 3 -50 261 -53 294 0 6 -120 1 -120 -6z"/>
<path d="M4225 1468 c-26 -123 -50 -229 -52 -235 -4 -10 12 -13 60 -13 54 0
67 3 71 18 10 33 96 426 96 439 0 9 -18 13 -63 13 l-63 0 -49 -222z"/>
<path d="M4975 1658 c-4 -18 -9 -41 -11 -50 -5 -16 5 -18 103 -18 l108 0 -95
-97 c-168 -172 -169 -174 -176 -226 l-7 -47 190 0 190 0 10 50 10 49 -111 3
-110 3 126 130 c118 122 127 134 136 183 l9 52 -183 0 -182 0 -7 -32z"/>
</g>
</svg>
